<?xml version="1.0" standalone="no"?>
<!DOCTYPE svg PUBLIC "-//W3C//DTD SVG 1.1//EN" "http://www.w3.org/Graphics/SVG/1.1/DTD/svg11.dtd" >
<svg xmlns="http://www.w3.org/2000/svg">
<metadata></metadata>
<defs>
<font id="zero_hourregular" horiz-adv-x="2078" >
<font-face units-per-em="2048" ascent="1573" descent="-475" />
<missing-glyph horiz-adv-x="759" />
<glyph unicode="&#x28;C&#x29;" horiz-adv-x="1683" d="M123 311v912q0 311 309 311h817q311 0 312 -311v-916q0 -307 -312 -307h-817q-309 0 -309 311zM250 311q0 -184 182 -184h817q184 0 185 180v916q0 184 -185 184h-817q-182 0 -182 -184v-912zM426 385v412q0 193 105.5 299t302.5 106h395v-129h-391q-156 0 -219.5 -63.5 t-63.5 -216.5v-277h674v-131h-803z" />
<glyph unicode="&#x28;R&#x29;" horiz-adv-x="1392" d="M111 526v695q0 311 309 311h549q311 0 311 -311v-699q0 -307 -311 -307h-549q-309 0 -309 311zM225 535q0 -106 41 -157.5t140 -51.5h563q113 0 155.5 52t42.5 152v678q0 104 -43 157.5t-155 53.5h-539q-117 0 -161 -49t-44 -162v-673zM326 561v367q0 174 93 269t269 95 h336v-424h-281l306 -241l-72 -88l-414 329h-123v-307h-114zM446 985h463v193h-235q-31 0 -66 -7.5t-66.5 -28t-57 -58t-38.5 -99.5z" />
<glyph horiz-adv-x="0" />
<glyph unicode="&#xd;" horiz-adv-x="1228" />
<glyph horiz-adv-x="759" />
<glyph unicode=" "  horiz-adv-x="759" />
<glyph unicode="&#x09;" horiz-adv-x="759" />
<glyph unicode="&#xa0;" horiz-adv-x="759" />
<glyph unicode="!" horiz-adv-x="489" d="M123 2v211h242v-211h-242zM123 379v1155h242v-1155h-242z" />
<glyph unicode="&#x22;" horiz-adv-x="811" d="M94 1106zM94 1602h217l-10 -496h-197zM500 1602h217l-10 -496h-197z" />
<glyph unicode="#" horiz-adv-x="1132" d="M53 379v176h152l65 430h-137v174h162l57 375h209l-57 -375h252l59 375h207l-57 -375h114v-174h-141l-68 -430h129v-176h-155l-58 -379h-204l57 379h-258l-57 -379h-205l59 379h-125zM408 555h254l69 430h-254z" />
<glyph unicode="$" horiz-adv-x="2068" d="M100 645q25 461 201 675t506 214h1157v-242h-645v-405h627q6 -242 -39 -411t-131 -274.5t-209 -153.5t-273 -48h-1185v244h645v401h-654zM367 889h387v397q-90 -10 -154.5 -33.5t-110 -69.5t-75 -118t-47.5 -176zM950 244h164v401h-164v-401zM950 889h164v403h-164v-403z M1319 250q94 8 161.5 34.5t113.5 75t74 119t42 166.5h-391v-395z" />
<glyph unicode="%" horiz-adv-x="2418" d="M111 0zM111 686v426q0 199 108.5 310.5t313.5 111.5h598v-426q0 -201 -108.5 -311.5t-313.5 -110.5h-598zM265 840h440q150 0 212 60t62 212v268h-442q-76 0 -128 -14t-84 -47t-46 -84t-14 -127v-268zM270 0l1669 1534h217l-1671 -1534h-215zM1286 0v426 q0 199 108.5 310.5t313.5 111.5h598v-426q0 -201 -108.5 -311.5t-313.5 -110.5h-598zM1440 154h440q150 0 212 60t62 212v268h-442q-76 0 -128 -14t-84 -47t-46 -84t-14 -127v-268z" />
<glyph unicode="&#x26;" horiz-adv-x="2064" d="M111 0v772q0 180 51 321.5t148.5 240t239.5 149.5t324 51h1098q-14 -236 -56 -398.5t-130 -246.5h186q-16 -250 -66.5 -420t-142.5 -274.5t-231 -149.5t-330 -45h-1091zM352 244h844q127 0 217 18.5t150.5 64.5t95.5 123.5t51 194.5h-1358v-401zM356 887h842 q121 0 208 20.5t147.5 67.5t97.5 125t59 192h-827q-133 0 -228.5 -22.5t-158 -71.5t-95 -126t-45.5 -185z" />
<glyph unicode="'" horiz-adv-x="405" d="M94 1602h217l-10 -496h-197z" />
<glyph unicode="(" horiz-adv-x="1015" d="M39 551q0 201 176 399l641 723l160 -139l-639 -715q-43 -49 -69.5 -84t-42 -66.5t-20.5 -64.5t-5 -74q0 -51 6 -90t27.5 -77.5t59.5 -84t103 -106.5l133 -129l-149 -149l-121 129q-76 82 -126 144t-81 121.5t-42 121t-11 141.5z" />
<glyph unicode=")" horiz-adv-x="1030" d="M0 33l639 715q43 49 69.5 83.5t42 66.5t21.5 64.5t6 73.5q0 51 -7 90t-27.5 78t-60.5 84t-103 109l-134 127l150 149l121 -129q76 -82 126 -144.5t80.5 -121.5t42 -120.5t11.5 -141.5q0 -201 -174 -400l-641 -722z" />
<glyph unicode="*" horiz-adv-x="974" d="M70 958l243 148l-243 145l92 152l235 -141v272h181v-272l235 141l90 -152l-244 -145l244 -148l-90 -151l-235 141v-272h-181v272l-235 -141z" />
<glyph unicode="+" horiz-adv-x="1320" d="M123 659v218h430v426h217v-426h428v-218h-428v-430h-217v430h-430z" />
<glyph unicode="," horiz-adv-x="493" d="M123 -209v422h246v-143l-125 -279h-121z" />
<glyph unicode="-" horiz-adv-x="794" d="M35 659v218h723v-218h-723z" />
<glyph unicode="." horiz-adv-x="489" d="M123 2v211h242v-211h-242z" />
<glyph unicode="/" horiz-adv-x="1576" d="M0 139l1419 1444l158 -160l-1419 -1446z" />
<glyph unicode="0" d="M111 0v772q0 178 51 319.5t148.5 240t239.5 150.5t324 52h1092v-772q0 -178 -50 -319.5t-147.5 -240t-240 -150.5t-324.5 -52h-1093zM111 0zM352 244h844q147 0 247.5 27.5t164 90t91 163t27.5 247.5v520h-843q-145 0 -246.5 -28.5t-165 -91t-91.5 -164t-28 -246.5v-518z " />
<glyph unicode="1" horiz-adv-x="489" d="M123 0v1534h242v-1534h-242z" />
<glyph unicode="2" horiz-adv-x="2082" d="M94 0q14 258 60.5 429t145.5 272.5t263 143.5t416 44h737v403h-1591v242h1833v-889h-1084q-129 0 -218 -21.5t-148 -69.5t-94 -125t-56 -185h1600v-244h-1864z" />
<glyph unicode="3" horiz-adv-x="2068" d="M94 653q14 244 62.5 412t140.5 272.5t231.5 150.5t335.5 46h1092v-772q0 -178 -51.5 -319.5t-148.5 -240t-238.5 -150.5t-323.5 -52h-1094v244h1086q129 0 222 22.5t156.5 70.5t98.5 124t47 184h-803v244h809v403h-844q-332 0 -442 -168q-37 -61 -61.5 -181t-34.5 -304z " />
<glyph unicode="4" horiz-adv-x="2056" d="M78 645q14 260 67.5 431t141.5 257q90 90 257 141.5t423 65.5l14 -240q-170 -12 -282.5 -28.5t-183.5 -58.5t-109.5 -117.5t-61.5 -206.5h1358v645h242v-772q0 -356 -188.5 -550t-571.5 -212l-123 -6l-14 242q186 12 306 36.5t191.5 71.5t104 120t45.5 181h-1616z" />
<glyph unicode="5" horiz-adv-x="2066" d="M104 645q14 250 63.5 420t141.5 274.5t232.5 149.5t335.5 45h1091v-242h-1083q-129 0 -218 -20.5t-148.5 -67.5t-93.5 -125t-54 -190h1603q-14 -252 -64 -422t-142.5 -273.5t-230.5 -148.5t-331 -45h-1093v244h1085q129 0 217 18.5t146.5 64.5t93.5 123.5t57 194.5h-1608 z" />
<glyph unicode="6" horiz-adv-x="2068" d="M111 0v772q0 180 51 321.5t148.5 240t239.5 149.5t324 51h1092v-242h-1083q-131 0 -224.5 -19.5t-156 -66.5t-96 -123.5t-44.5 -193.5h1610q-14 -252 -63 -422t-141.5 -273.5t-231.5 -148.5t-334 -45h-1091zM352 244h844q131 0 219 19.5t146.5 65.5t92.5 123.5t56 192.5 h-1358v-401z" />
<glyph unicode="7" horiz-adv-x="2080" d="M45 653q14 244 62.5 412t140.5 272.5t232.5 150.5t336.5 46h1264l-1743 -1581l-174 174l1298 1165h-637q-334 0 -444 -168q-74 -119 -94 -485z" />
<glyph unicode="8" d="M111 0v772q0 178 51 319.5t148.5 240t239.5 150.5t324 52h1092v-772q0 -178 -50 -319.5t-147.5 -240t-240 -150.5t-324.5 -52h-1093zM111 0zM352 244h844q129 0 222 22.5t156.5 70.5t98.5 124t47 184h-1368v-401zM358 889h1368v403h-843q-131 0 -224.5 -22.5t-156 -70.5 t-96 -125t-48.5 -185z" />
<glyph unicode="9" horiz-adv-x="2060" d="M86 645q14 248 62.5 418t140.5 274.5t231 150.5t336 46h1092v-772q0 -174 -50.5 -314.5t-147.5 -239.5t-238.5 -153.5t-325.5 -54.5h-1094v244h1086q133 0 227 19.5t155.5 66.5t94.5 123.5t45 191.5h-1614zM352 889h1356v403h-844q-129 0 -218 -19.5t-147.5 -65.5 t-92 -123.5t-54.5 -194.5z" />
<glyph unicode=":" horiz-adv-x="491" d="M123 2v211h244v-211h-244zM123 709v211h244v-211h-244z" />
<glyph unicode=";" horiz-adv-x="493" d="M123 -209v422h246v-143l-125 -279h-121zM123 709v211h244v-211h-244z" />
<glyph unicode="&#x3c;" horiz-adv-x="1146" d="M123 758q0 45 20.5 84t61.5 61l817 488v-318l-584 -313l584 -314v-315l-817 487q-43 25 -62.5 62t-19.5 78z" />
<glyph unicode="=" horiz-adv-x="1320" d="M123 453v217h1075v-217h-1075zM123 866v217h1075v-217h-1075z" />
<glyph unicode="&#x3e;" horiz-adv-x="1146" d="M123 131v315l584 314l-584 313v318l819 -488q39 -23 59.5 -61.5t20.5 -83.5q0 -41 -19.5 -78t-60.5 -62z" />
<glyph unicode="?" horiz-adv-x="2007" d="M45 653q14 246 64.5 414t142.5 271.5t231.5 149.5t333.5 46h1094v-889h-807v-266h-242v510h805v403h-842q-334 0 -440 -168q-78 -123 -98 -485zM860 2v211h244v-211h-244z" />
<glyph unicode="@" horiz-adv-x="1806" d="M111 -211v1106q0 639 573 639h1012v-938q0 -330 -175 -483.5t-501 -153.5v277h-426v524q0 111 56.5 173t156.5 62h399v-815q166 20 234.5 120.5t68.5 309.5v721h-813q-403 0 -403 -407v-1135h-182zM778 436h242v357h-213q-12 0 -20.5 -11.5t-8.5 -25.5v-320z" />
<glyph unicode="A" horiz-adv-x="2091" d="M111 0v772q0 180 51 321.5t148.5 240t239.5 149.5t324 51h1092v-1534h-240v645h-1372v-645h-243zM365 889h1361v403h-841q-145 0 -238.5 -16t-152 -60.5t-87 -123t-42.5 -203.5z" />
<glyph unicode="B" d="M111 0v772q0 178 51 319.5t148.5 240t239.5 150.5t324 52h1092v-772q0 -178 -50 -319.5t-147.5 -240t-240 -150.5t-324.5 -52h-1093zM352 244h844q129 0 222 22.5t156.5 70.5t98.5 124t47 184h-1368v-401zM358 889h1368v403h-843q-131 0 -224.5 -22.5t-156 -70.5 t-96 -125t-48.5 -185z" />
<glyph unicode="C" horiz-adv-x="2043" d="M111 0v772q0 180 51 321.5t148.5 240t239.5 149.5t324 51h1092v-242h-1083q-145 0 -246.5 -28.5t-164 -91t-91.5 -164t-29 -246.5v-518h1614v-244h-1855z" />
<glyph unicode="D" horiz-adv-x="2091" d="M123 0v1534h1855v-772q0 -178 -50 -319.5t-147.5 -240t-239.5 -150.5t-324 -52h-1094zM367 244h841q147 0 247.5 27.5t164 90t91.5 163t28 247.5v520h-1372v-1048z" />
<glyph unicode="E" horiz-adv-x="2060" d="M111 0v772q0 178 50 319.5t147.5 240t239.5 150.5t326 52h1092v-242h-1083q-131 0 -224.5 -22.5t-156 -70.5t-96 -125t-48.5 -185h1608v-244h-1614v-401h1614v-244h-1855z" />
<glyph unicode="F" horiz-adv-x="2015" d="M111 0v772q0 178 51 319.5t148.5 240t239.5 150.5t324 52h1092v-242h-1085q-131 0 -224.5 -22.5t-156 -70.5t-96 -125t-46.5 -185h1608v-244h-1614v-645h-241z" />
<glyph unicode="G" horiz-adv-x="2064" d="M111 0v772q0 180 51 321.5t148.5 240t239.5 149.5t324 51h1092v-242h-1083q-152 0 -253.5 -27.5t-162.5 -90t-88 -164t-27 -248.5v-518h844q131 0 219 19.5t146.5 65.5t92.5 123.5t56 192.5h-792v244h1054q-14 -252 -63 -422t-141.5 -273.5t-231.5 -148.5t-334 -45h-1091 z" />
<glyph unicode="H" horiz-adv-x="2103" d="M123 0v1534h242v-645h1374v645h239v-1534h-239v645h-1374v-645h-242z" />
<glyph unicode="I" horiz-adv-x="489" d="M123 0v1534h242v-1534h-242z" />
<glyph unicode="J" horiz-adv-x="1912" d="M45 0v244h985q147 0 247.5 27.5t164 90t91.5 163t28 247.5v762h241v-772q0 -178 -51 -319.5t-148.5 -240t-239.5 -150.5t-325 -52h-993z" />
<glyph unicode="K" horiz-adv-x="2056" d="M123 0v1534h242v-588l1562 625l90 -225l-993 -398l1008 -809l-154 -186l-1116 893l-397 -162v-684h-242z" />
<glyph unicode="L" horiz-adv-x="2029" d="M111 0v772q0 186 45 328.5t145 239t260 145.5t389 49h56v-242h-45q-184 0 -302 -28.5t-185.5 -95t-93.5 -176t-26 -271.5v-477h1614v-244h-1857z" />
<glyph unicode="M" horiz-adv-x="2738" d="M111 0v842q0 154 54 281.5t153.5 219t240.5 141.5t315 50h609v-158q49 45 114.5 75t135 48.5t139.5 26.5t129 8h614v-1534h-243v1292h-359q-145 0 -246.5 -28.5t-165 -91t-91 -164t-27.5 -246.5v-760h-244v1290h-358q-145 0 -245.5 -27.5t-163 -91t-90.5 -164t-28 -247.5 v-762h-243z" />
<glyph unicode="N" horiz-adv-x="2105" d="M123 0v1665l1618 -1292v1161h239v-1665l-1613 1292v-1161h-244z" />
<glyph unicode="O" d="M111 0v772q0 178 51 319.5t148.5 240t239.5 150.5t324 52h1092v-772q0 -178 -50 -319.5t-147.5 -240t-240 -150.5t-324.5 -52h-1093zM352 244h844q147 0 247.5 27.5t164 90t91 163t27.5 247.5v520h-843q-145 0 -246.5 -28.5t-165 -91t-91.5 -164t-28 -246.5v-518z" />
<glyph unicode="P" horiz-adv-x="2056" d="M111 0v772q0 180 51 321.5t148.5 240t238.5 149.5t323 51h1094v-889h-1614v-645h-241zM365 889h1361v403h-831q-139 0 -233.5 -16t-156 -60.5t-94 -123t-46.5 -203.5z" />
<glyph unicode="Q" horiz-adv-x="2160" d="M111 0v772q0 178 51 319.5t148.5 240t239.5 150.5t324 52h1094v-1354l330 -266l-148 -188l-346 274h-1693zM352 244h1374v1048h-843q-145 0 -246.5 -28.5t-164 -91t-91.5 -164t-29 -246.5v-518z" />
<glyph unicode="R" horiz-adv-x="2086" d="M111 0v772q0 178 50 319.5t147.5 240t239.5 150.5t326 52h1092v-889h-586l639 -506l-151 -186l-871 692h-645v-645h-241zM367 889h1359v403h-882q-66 0 -138.5 -14t-140 -58t-121 -123t-77.5 -208z" />
<glyph unicode="S" horiz-adv-x="2068" d="M98 645q14 248 68.5 418t150 274.5t229.5 150.5t306 46h1110v-242h-1122q-115 0 -197 -28.5t-138 -81t-89 -127t-51 -166.5h1603q-14 -252 -64.5 -422t-142.5 -273.5t-230 -148.5t-331 -45h-1094v244h1086q129 0 217 18.5t146.5 64.5t93 123.5t57.5 194.5h-1608z" />
<glyph unicode="T" horiz-adv-x="1902" d="M31 653q12 246 60 414t140.5 271.5t232.5 149.5t335 46h1069v-242h-781v-1292h-243v1292q-244 0 -371 -69q-53 -29 -88 -67t-58.5 -102.5t-37 -163.5t-21.5 -251z" />
<glyph unicode="U" horiz-adv-x="2070" d="M123 0v1534h244v-1290h630q209 0 347.5 25.5t221.5 85t117.5 159.5t34.5 250v770h240v-772q0 -178 -51.5 -319.5t-148.5 -240t-238.5 -150.5t-323.5 -52h-1073z" />
<glyph unicode="V" horiz-adv-x="1978" d="M14 1452l209 129l768 -1233l768 1233l205 -129l-973 -1558z" />
<glyph unicode="W" horiz-adv-x="2699" d="M123 0v1534h244v-1292h338q145 0 246.5 27.5t164 91t91 164t28.5 247.5v760h244v-1290h338q145 0 245.5 27.5t164 91t91 164t27.5 247.5v762h242v-842q0 -154 -54.5 -281.5t-154 -219t-239.5 -141.5t-314 -50h-590v158q-49 -45 -114.5 -76t-135.5 -49.5t-139.5 -25.5 t-128.5 -7h-594z" />
<glyph unicode="X" horiz-adv-x="2013" d="M27 139l786 627l-786 629l151 188l828 -661l827 661l149 -188l-782 -629l782 -627l-149 -186l-827 659l-828 -659z" />
<glyph unicode="Y" horiz-adv-x="2070" d="M102 0v244h1086q129 0 222 22.5t156.5 70.5t98.5 124t47 184h-1610v889h242v-645h1374v645h240v-772q0 -178 -51.5 -319.5t-148.5 -240t-238.5 -150.5t-323.5 -52h-1094z" />
<glyph unicode="Z" horiz-adv-x="2172" d="M31 0l1439 1292h-1318v242h1937l-1417 -1290h669q162 0 261.5 27.5t157 100t82 198.5t34.5 325l244 -14q-14 -248 -64.5 -416t-142.5 -271.5t-231.5 -148.5t-333.5 -45h-1317z" />
<glyph unicode="[" horiz-adv-x="606" d="M186 -172v1855h359v-188h-172v-1483h172v-184h-359z" />
<glyph unicode="\" horiz-adv-x="1576" d="M0 1423l160 160l1417 -1444l-156 -162z" />
<glyph unicode="]" horiz-adv-x="606" d="M61 12h172v1483h-172v188h359v-1855h-359v184z" />
<glyph unicode="^" horiz-adv-x="1046" d="M41 854l373 629q18 31 48 46t60 15q31 0 61.5 -16.5t49.5 -44.5l373 -629h-242l-240 449l-241 -449h-242z" />
<glyph unicode="_" horiz-adv-x="1447" d="M-2 -279h1454v-196h-1454v196z" />
<glyph unicode="`" horiz-adv-x="690" d="M104 1929h267l217 -307h-238z" />
<glyph unicode="a" horiz-adv-x="2091" d="M111 0v772q0 180 51 321.5t148.5 240t239.5 149.5t324 51h1092v-1534h-240v645h-1372v-645h-243zM111 0zM365 889h1361v403h-841q-145 0 -238.5 -16t-152 -60.5t-87 -123t-42.5 -203.5z" />
<glyph unicode="b" d="M111 0v772q0 178 51 319.5t148.5 240t239.5 150.5t324 52h1092v-772q0 -178 -50 -319.5t-147.5 -240t-240 -150.5t-324.5 -52h-1093zM111 0zM352 244h844q129 0 222 22.5t156.5 70.5t98.5 124t47 184h-1368v-401zM358 889h1368v403h-843q-131 0 -224.5 -22.5t-156 -70.5 t-96 -125t-48.5 -185z" />
<glyph unicode="c" horiz-adv-x="2043" d="M111 0v772q0 180 51 321.5t148.5 240t239.5 149.5t324 51h1092v-242h-1083q-145 0 -246.5 -28.5t-164 -91t-91.5 -164t-29 -246.5v-518h1614v-244h-1855zM111 0z" />
<glyph unicode="d" horiz-adv-x="2091" d="M123 0v1534h1855v-772q0 -178 -50 -319.5t-147.5 -240t-239.5 -150.5t-324 -52h-1094zM123 0zM367 244h841q147 0 247.5 27.5t164 90t91.5 163t28 247.5v520h-1372v-1048z" />
<glyph unicode="e" horiz-adv-x="2060" d="M111 0v772q0 178 50 319.5t147.5 240t239.5 150.5t326 52h1092v-242h-1083q-131 0 -224.5 -22.5t-156 -70.5t-96 -125t-48.5 -185h1608v-244h-1614v-401h1614v-244h-1855zM111 0z" />
<glyph unicode="f" horiz-adv-x="2015" d="M111 0v772q0 178 51 319.5t148.5 240t239.5 150.5t324 52h1092v-242h-1085q-131 0 -224.5 -22.5t-156 -70.5t-96 -125t-46.5 -185h1608v-244h-1614v-645h-241zM111 0z" />
<glyph unicode="g" horiz-adv-x="2064" d="M111 0v772q0 180 51 321.5t148.5 240t239.5 149.5t324 51h1092v-242h-1083q-152 0 -253.5 -27.5t-162.5 -90t-88 -164t-27 -248.5v-518h844q131 0 219 19.5t146.5 65.5t92.5 123.5t56 192.5h-792v244h1054q-14 -252 -63 -422t-141.5 -273.5t-231.5 -148.5t-334 -45h-1091 zM111 0z" />
<glyph unicode="h" horiz-adv-x="2103" d="M123 0v1534h242v-645h1374v645h239v-1534h-239v645h-1374v-645h-242zM123 0z" />
<glyph unicode="i" horiz-adv-x="489" d="M123 0v1534h242v-1534h-242zM123 0z" />
<glyph unicode="j" horiz-adv-x="1912" d="M45 0v244h985q147 0 247.5 27.5t164 90t91.5 163t28 247.5v762h241v-772q0 -178 -51 -319.5t-148.5 -240t-239.5 -150.5t-325 -52h-993zM45 0z" />
<glyph unicode="k" horiz-adv-x="2056" d="M123 0v1534h242v-588l1562 625l90 -225l-993 -398l1008 -809l-154 -186l-1116 893l-397 -162v-684h-242zM123 0z" />
<glyph unicode="l" horiz-adv-x="2029" d="M111 0v772q0 186 45 328.5t145 239t260 145.5t389 49h56v-242h-45q-184 0 -302 -28.5t-185.5 -95t-93.5 -176t-26 -271.5v-477h1614v-244h-1857zM111 0z" />
<glyph unicode="m" horiz-adv-x="2738" d="M111 0v842q0 154 54 281.5t153.5 219t240.5 141.5t315 50h609v-158q49 45 114.5 75t135 48.5t139.5 26.5t129 8h614v-1534h-243v1292h-359q-145 0 -246.5 -28.5t-165 -91t-91 -164t-27.5 -246.5v-760h-244v1290h-358q-145 0 -245.5 -27.5t-163 -91t-90.5 -164t-28 -247.5 v-762h-243zM111 0z" />
<glyph unicode="n" horiz-adv-x="2105" d="M123 0v1665l1618 -1292v1161h239v-1665l-1613 1292v-1161h-244zM123 0z" />
<glyph unicode="o" d="M111 0v772q0 178 51 319.5t148.5 240t239.5 150.5t324 52h1092v-772q0 -178 -50 -319.5t-147.5 -240t-240 -150.5t-324.5 -52h-1093zM111 0zM352 244h844q147 0 247.5 27.5t164 90t91 163t27.5 247.5v520h-843q-145 0 -246.5 -28.5t-165 -91t-91.5 -164t-28 -246.5v-518z " />
<glyph unicode="p" horiz-adv-x="2056" d="M111 0v772q0 180 51 321.5t148.5 240t238.5 149.5t323 51h1094v-889h-1614v-645h-241zM111 0zM365 889h1361v403h-831q-139 0 -233.5 -16t-156 -60.5t-94 -123t-46.5 -203.5z" />
<glyph unicode="q" horiz-adv-x="2160" d="M111 0v772q0 178 51 319.5t148.5 240t239.5 150.5t324 52h1094v-1354l330 -266l-148 -188l-346 274h-1693zM111 0zM352 244h1374v1048h-843q-145 0 -246.5 -28.5t-164 -91t-91.5 -164t-29 -246.5v-518z" />
<glyph unicode="r" horiz-adv-x="2086" d="M111 0v772q0 178 50 319.5t147.5 240t239.5 150.5t326 52h1092v-889h-586l639 -506l-151 -186l-871 692h-645v-645h-241zM111 0zM367 889h1359v403h-882q-66 0 -138.5 -14t-140 -58t-121 -123t-77.5 -208z" />
<glyph unicode="s" horiz-adv-x="2068" d="M98 0zM98 645q14 248 68.5 418t150 274.5t229.5 150.5t306 46h1110v-242h-1122q-115 0 -197 -28.5t-138 -81t-89 -127t-51 -166.5h1603q-14 -252 -64.5 -422t-142.5 -273.5t-230 -148.5t-331 -45h-1094v244h1086q129 0 217 18.5t146.5 64.5t93 123.5t57.5 194.5h-1608z " />
<glyph unicode="t" horiz-adv-x="1902" d="M31 0zM31 653q12 246 60 414t140.5 271.5t232.5 149.5t335 46h1069v-242h-781v-1292h-243v1292q-244 0 -371 -69q-53 -29 -88 -67t-58.5 -102.5t-37 -163.5t-21.5 -251z" />
<glyph unicode="u" horiz-adv-x="2070" d="M123 0v1534h244v-1290h630q209 0 347.5 25.5t221.5 85t117.5 159.5t34.5 250v770h240v-772q0 -178 -51.5 -319.5t-148.5 -240t-238.5 -150.5t-323.5 -52h-1073zM123 0z" />
<glyph unicode="v" horiz-adv-x="1978" d="M14 0zM14 1452l209 129l768 -1233l768 1233l205 -129l-973 -1558z" />
<glyph unicode="w" horiz-adv-x="2699" d="M123 0v1534h244v-1292h338q145 0 246.5 27.5t164 91t91 164t28.5 247.5v760h244v-1290h338q145 0 245.5 27.5t164 91t91 164t27.5 247.5v762h242v-842q0 -154 -54.5 -281.5t-154 -219t-239.5 -141.5t-314 -50h-590v158q-49 -45 -114.5 -76t-135.5 -49.5t-139.5 -25.5 t-128.5 -7h-594zM123 0z" />
<glyph unicode="x" horiz-adv-x="2013" d="M27 0zM27 139l786 627l-786 629l151 188l828 -661l827 661l149 -188l-782 -629l782 -627l-149 -186l-827 659l-828 -659z" />
<glyph unicode="y" horiz-adv-x="2070" d="M102 0v244h1086q129 0 222 22.5t156.5 70.5t98.5 124t47 184h-1610v889h242v-645h1374v645h240v-772q0 -178 -51.5 -319.5t-148.5 -240t-238.5 -150.5t-323.5 -52h-1094zM102 0z" />
<glyph unicode="z" horiz-adv-x="2172" d="M31 0l1439 1292h-1318v242h1937l-1417 -1290h669q162 0 261.5 27.5t157 100t82 198.5t34.5 325l244 -14q-14 -248 -64.5 -416t-142.5 -271.5t-231.5 -148.5t-333.5 -45h-1317zM31 0z" />
<glyph unicode="{" horiz-adv-x="698" d="M123 672v162q133 8 133 98v500q0 137 61.5 194t198.5 57h59v-188q-47 0 -73.5 -6t-39.5 -22.5t-17.5 -45t-4.5 -73.5v-402q0 -150 -114 -194q59 -20 86.5 -69.5t27.5 -123.5v-395q0 -41 2 -68.5t15.5 -45t41 -26t76.5 -10.5v-186h-59q-137 0 -198.5 58.5t-61.5 193.5v493 q0 41 -35 69t-98 30z" />
<glyph unicode="|" horiz-adv-x="622" d="M225 -170v1853h170v-1853h-170z" />
<glyph unicode="}" horiz-adv-x="698" d="M123 14q27 0 51.5 4.5t43 18.5t28.5 40.5t10 72.5v409q0 152 115 193q-115 47 -115 194v414q0 37 -4 63.5t-17.5 42t-40 22.5t-71.5 7v188h59q135 0 197.5 -56t62.5 -195v-500q0 -43 35 -69.5t98 -28.5v-162q-133 -4 -133 -99v-493q0 -137 -62.5 -194.5t-197.5 -57.5h-59 v186z" />
<glyph unicode="~" horiz-adv-x="1132" d="M123 825q129 139 260 140q61 0 108.5 -16.5t87 -37t76.5 -37t78 -16.5q31 0 61.5 21.5t61.5 68.5l152 -168q-119 -143 -267 -143q-53 0 -96 16.5t-82 36t-75.5 35.5t-73.5 16t-70 -17t-68 -73z" />
<glyph unicode="&#xa1;" horiz-adv-x="489" d="M123 2v1155h242v-1155h-242zM123 1323v211h242v-211h-242z" />
<glyph unicode="&#xa2;" horiz-adv-x="2043" d="M111 0v772q0 180 51 321.5t148.5 240t239.5 149.5t324 51h226v149h170v-149h696v-242h-696v-1048h696v-244h-696v-170h-170v170h-989zM352 244h748v1048h-217q-145 0 -246.5 -28.5t-164 -91t-91.5 -164t-29 -246.5v-518z" />
<glyph unicode="&#xa3;" horiz-adv-x="1947" d="M33 0v244h221v528q0 180 51 321.5t148.5 240t240 149.5t324.5 51h457v-242h-449q-131 0 -224 -19.5t-155.5 -66.5t-96.5 -123.5t-44 -193.5h786v-244h-796v-401h700q98 0 173 11t130 35.5t93 65.5t65 103h248q-37 -127 -97.5 -214t-146.5 -141.5t-200.5 -79t-258.5 -24.5 h-1169z" />
<glyph unicode="&#xa5;" horiz-adv-x="2043" d="M12 1534h330l649 -735h60l649 735h330l-687 -735h512v-217h-686v-582h-286v582h-701v217h518z" />
<glyph unicode="&#xa6;" horiz-adv-x="622" d="M225 -170v711h170v-711h-170zM225 926v757h170v-757h-170z" />
<glyph unicode="&#xa8;" horiz-adv-x="1044" d="M123 1694v209h242v-209h-242zM680 1694v209h242v-209h-242z" />
<glyph unicode="&#xaa;" horiz-adv-x="1212" d="M86 686v426q0 201 108.5 311.5t313.5 110.5h598v-848h-152v346h-714v-346h-154zM248 1188h706v192h-440q-72 0 -119 -8t-76.5 -29.5t-46 -59.5t-24.5 -95z" />
<glyph unicode="&#xab;" horiz-adv-x="933" d="M35 332zM35 606v322l395 276v-256l-256 -162v-38l256 -162v-254zM502 606v322l395 276v-256l-256 -162v-38l256 -162v-254z" />
<glyph unicode="&#xad;" horiz-adv-x="794" d="M35 659v218h723v-218h-723z" />
<glyph unicode="&#xaf;" horiz-adv-x="966" d="M123 1704v145h721v-145h-721z" />
<glyph unicode="&#xb0;" horiz-adv-x="866" d="M123 1217q0 309 309 309t309 -309q0 -314 -309 -314t-309 314zM250 1217q0 -186 182 -187q184 0 184 182q0 186 -184 187q-182 0 -182 -182z" />
<glyph unicode="&#xb1;" horiz-adv-x="1320" d="M123 2v218h1075v-218h-1075zM123 2zM123 876v218h430v426h217v-426h428v-218h-428v-430h-217v430h-430z" />
<glyph unicode="&#xb2;" horiz-adv-x="1206" d="M76 686q8 143 33.5 240.5t80 155t144.5 82t229 24.5h385v192h-854v154h1008v-502h-594q-129 0 -185.5 -44t-78.5 -148h858v-154h-1026zM76 686z" />
<glyph unicode="&#xb3;" horiz-adv-x="1198" d="M76 686zM76 1036q8 137 34.5 232.5t78 155t128 85t185.5 25.5h598v-426q0 -201 -108.5 -311.5t-311.5 -110.5h-600v154h594q129 0 190.5 45t77.5 147h-428v156h434v192h-442q-78 0 -129 -12t-82 -49t-45 -106.5t-21 -182.5z" />
<glyph unicode="&#xb4;" horiz-adv-x="690" d="M102 1622l217 307h269l-246 -307h-240z" />
<glyph unicode="&#xb7;" horiz-adv-x="489" d="M123 659v211h242v-211h-242zM123 659z" />
<glyph unicode="&#xb8;" horiz-adv-x="493" d="M123 -53h246v-144l-125 -278h-121v422z" />
<glyph unicode="&#xb9;" horiz-adv-x="329" d="M86 686v848h154v-848h-154zM86 686z" />
<glyph unicode="&#xba;" horiz-adv-x="1204" d="M86 686v426q0 199 108.5 310.5t313.5 111.5h598v-426q0 -201 -108.5 -311.5t-313.5 -110.5h-598zM240 840h440q150 0 212 60.5t62 211.5v268h-442q-76 0 -128 -14t-84 -47t-46 -84t-14 -127v-268z" />
<glyph unicode="&#xbb;" horiz-adv-x="933" d="M35 332v254l258 162v38l-258 162v256l395 -276v-322zM35 332zM502 332v254l258 162v38l-258 162v256l395 -276v-322z" />
<glyph unicode="&#xbc;" horiz-adv-x="2342" d="M110 0l1669 1534h217l-1671 -1534h-215zM111 0zM541 686v848h154v-848h-154zM1205 346q8 150 33.5 245t83 150.5t150.5 79t234 31.5l6 -154q-88 -6 -148 -16t-98 -30.5t-59.5 -56.5t-33.5 -93h704v346h154v-426q0 -197 -104.5 -304.5t-315.5 -117.5l-78 -4l-8 154 q98 6 161.5 17t102.5 34.5t57.5 58.5t24.5 86h-866z" />
<glyph unicode="&#xbd;" horiz-adv-x="2514" d="M110 0l1669 1534h217l-1671 -1534h-215zM111 0zM541 686v848h154v-848h-154zM1376 0q8 143 33.5 240.5t80 155t144.5 82t229 24.5h385v192h-854v154h1008v-502h-594q-129 0 -185.5 -44t-78.5 -148h858v-154h-1026z" />
<glyph unicode="&#xbe;" horiz-adv-x="2461" d="M111 0zM111 1036q8 137 34.5 232.5t78 155t128 85t185.5 25.5h598v-426q0 -201 -108.5 -311.5t-311.5 -110.5h-600v154h594q129 0 190.5 45t77.5 147h-428v156h434v192h-442q-78 0 -129 -12t-82 -49t-45 -106.5t-21 -182.5zM272 0l1669 1534h217l-1671 -1534h-215z M1323 346q8 150 33.5 245t83 150.5t150.5 79t234 31.5l6 -154q-88 -6 -148 -16t-98 -30.5t-59.5 -56.5t-33.5 -93h704v346h154v-426q0 -197 -104.5 -304.5t-315.5 -117.5l-78 -4l-8 154q98 6 161.5 17t102.5 34.5t57.5 58.5t24.5 86h-866z" />
<glyph unicode="&#xbf;" horiz-adv-x="2007" d="M86 2v889h807v266h242v-510h-805v-403h841q334 0 441 168q78 123 98 485l242 -14q-16 -246 -65.5 -414t-141.5 -271.5t-231.5 -149.5t-333.5 -46h-1094zM893 1323v211h244v-211h-244z" />
<glyph unicode="&#xc0;" horiz-adv-x="2091" d="M111 0v772q0 180 51 321.5t148.5 240t239.5 149.5t324 51h1092v-1534h-240v645h-1372v-645h-243zM111 0zM365 889h1361v403h-841q-145 0 -238.5 -16t-152 -60.5t-87 -123t-42.5 -203.5zM823 1929h267l217 -307h-238z" />
<glyph unicode="&#xc1;" horiz-adv-x="2091" d="M111 0v772q0 180 51 321.5t148.5 240t239.5 149.5t324 51h1092v-1534h-240v645h-1372v-645h-243zM111 0zM365 889h1361v403h-841q-145 0 -238.5 -16t-152 -60.5t-87 -123t-42.5 -203.5zM1028 1622l217 307h269l-246 -307h-240z" />
<glyph unicode="&#xc2;" horiz-adv-x="2091" d="M111 0v772q0 180 51 321.5t148.5 240t239.5 149.5t324 51h1092v-1534h-240v645h-1372v-645h-243zM111 0zM365 889h1361v403h-841q-145 0 -238.5 -16t-152 -60.5t-87 -123t-42.5 -203.5zM780 1622l244 307h284l246 -307h-227l-144 201h-32l-146 -201h-225z" />
<glyph unicode="&#xc3;" horiz-adv-x="2091" d="M111 0v772q0 180 51 321.5t148.5 240t239.5 149.5t324 51h1092v-1534h-240v645h-1372v-645h-243zM111 0zM365 889h1361v403h-841q-145 0 -238.5 -16t-152 -60.5t-87 -123t-42.5 -203.5zM807 1704v145h721v-145h-721z" />
<glyph unicode="&#xc4;" horiz-adv-x="2091" d="M111 0v772q0 180 51 321.5t148.5 240t239.5 149.5t324 51h1092v-1534h-240v645h-1372v-645h-243zM111 0zM365 889h1361v403h-841q-145 0 -238.5 -16t-152 -60.5t-87 -123t-42.5 -203.5zM768 1694v209h242v-209h-242zM1325 1694v209h242v-209h-242z" />
<glyph unicode="&#xc5;" horiz-adv-x="2091" d="M111 0v772q0 180 51 321.5t148.5 240t239.5 149.5t324 51h1092v-1534h-240v645h-1372v-645h-243zM111 0zM365 889h1361v403h-841q-145 0 -238.5 -16t-152 -60.5t-87 -123t-42.5 -203.5zM815 1735v73q0 174 250 174h198q256 0 256 -174v-73q0 -170 -256 -170h-198 q-250 0 -250 170zM962 1755q0 -45 22.5 -61.5t80.5 -16.5h202q59 0 82 18.5t23 59.5v35q0 37 -21.5 56.5t-74.5 19.5h-211q-59 0 -81 -17.5t-22 -58.5v-35z" />
<glyph unicode="&#xc6;" horiz-adv-x="3592" d="M111 0v772q0 180 51 321.5t148.5 240t239.5 149.5t324 51h1051v-164q98 80 227 122t295 42h1051v-242h-1042q-131 0 -224.5 -22.5t-156 -70.5t-96 -125t-48.5 -185h1567v-244h-1573v-401h1573v-244h-1815v645h-1329v-645h-243zM365 889h1318v403h-798q-145 0 -238.5 -16 t-152 -60.5t-87 -123t-42.5 -203.5z" />
<glyph unicode="&#xc7;" horiz-adv-x="2043" d="M111 0v772q0 180 51 321.5t148.5 240t239.5 149.5t324 51h1092v-242h-1083q-145 0 -246.5 -28.5t-164 -91t-91.5 -164t-29 -246.5v-518h1614v-244h-1855zM111 0zM1002 -53h246v-144l-125 -278h-121v422z" />
<glyph unicode="&#xc8;" horiz-adv-x="2060" d="M111 0v772q0 178 50 319.5t147.5 240t239.5 150.5t326 52h1092v-242h-1083q-131 0 -224.5 -22.5t-156 -70.5t-96 -125t-48.5 -185h1608v-244h-1614v-401h1614v-244h-1855zM111 0zM809 1929h267l217 -307h-238z" />
<glyph unicode="&#xc9;" horiz-adv-x="2060" d="M111 0v772q0 178 50 319.5t147.5 240t239.5 150.5t326 52h1092v-242h-1083q-131 0 -224.5 -22.5t-156 -70.5t-96 -125t-48.5 -185h1608v-244h-1614v-401h1614v-244h-1855zM111 0zM1011 1622l217 307h269l-246 -307h-240z" />
<glyph unicode="&#xca;" horiz-adv-x="2060" d="M111 0v772q0 178 50 319.5t147.5 240t239.5 150.5t326 52h1092v-242h-1083q-131 0 -224.5 -22.5t-156 -70.5t-96 -125t-48.5 -185h1608v-244h-1614v-401h1614v-244h-1855zM111 0zM766 1622l244 307h284l246 -307h-227l-144 201h-32l-146 -201h-225z" />
<glyph unicode="&#xcb;" horiz-adv-x="2060" d="M111 0v772q0 178 50 319.5t147.5 240t239.5 150.5t326 52h1092v-242h-1083q-131 0 -224.5 -22.5t-156 -70.5t-96 -125t-48.5 -185h1608v-244h-1614v-401h1614v-244h-1855zM111 0zM754 1694v209h242v-209h-242zM1311 1694v209h242v-209h-242z" />
<glyph unicode="&#xcc;" horiz-adv-x="489" d="M-97 1929h267l217 -307h-238zM0 0zM123 0v1534h242v-1534h-242z" />
<glyph unicode="&#xcd;" horiz-adv-x="489" d="M104 0zM104 1622l217 307h269l-246 -307h-240zM123 0v1534h242v-1534h-242z" />
<glyph unicode="&#xce;" horiz-adv-x="489" d="M-139 1622l244 307h284l246 -307h-227l-144 201h-32l-146 -201h-225zM0 0zM123 0v1534h242v-1534h-242z" />
<glyph unicode="&#xcf;" horiz-adv-x="489" d="M-151 1694v209h242v-209h-242zM0 0zM123 0v1534h242v-1534h-242zM406 1694v209h242v-209h-242z" />
<glyph unicode="&#xd0;" horiz-adv-x="2140" d="M0 645v244h174v645h1856v-772q0 -178 -51.5 -319.5t-148.5 -240t-238.5 -150.5t-323.5 -52h-1094v645h-174zM418 244h839q147 0 249 27.5t164.5 90t90 163t27.5 247.5v520h-1370v-403h1061v-244h-1061v-401z" />
<glyph unicode="&#xd1;" horiz-adv-x="2105" d="M123 0v1665l1618 -1292v1161h239v-1665l-1613 1292v-1161h-244zM123 0zM692 1704v145h721v-145h-721z" />
<glyph unicode="&#xd2;" d="M111 0v772q0 178 51 319.5t148.5 240t239.5 150.5t324 52h1092v-772q0 -178 -50 -319.5t-147.5 -240t-240 -150.5t-324.5 -52h-1093zM111 0zM352 244h844q147 0 247.5 27.5t164 90t91 163t27.5 247.5v520h-843q-145 0 -246.5 -28.5t-165 -91t-91.5 -164t-28 -246.5v-518z M817 1929h267l217 -307h-238z" />
<glyph unicode="&#xd3;" d="M111 0v772q0 178 51 319.5t148.5 240t239.5 150.5t324 52h1092v-772q0 -178 -50 -319.5t-147.5 -240t-240 -150.5t-324.5 -52h-1093zM111 0zM352 244h844q147 0 247.5 27.5t164 90t91 163t27.5 247.5v520h-843q-145 0 -246.5 -28.5t-165 -91t-91.5 -164t-28 -246.5v-518z M1022 1622l217 307h269l-246 -307h-240z" />
<glyph unicode="&#xd4;" d="M111 0v772q0 178 51 319.5t148.5 240t239.5 150.5t324 52h1092v-772q0 -178 -50 -319.5t-147.5 -240t-240 -150.5t-324.5 -52h-1093zM111 0zM352 244h844q147 0 247.5 27.5t164 90t91 163t27.5 247.5v520h-843q-145 0 -246.5 -28.5t-165 -91t-91.5 -164t-28 -246.5v-518z M774 1622l244 307h284l246 -307h-227l-144 201h-32l-146 -201h-225z" />
<glyph unicode="&#xd5;" d="M111 0v772q0 178 51 319.5t148.5 240t239.5 150.5t324 52h1092v-772q0 -178 -50 -319.5t-147.5 -240t-240 -150.5t-324.5 -52h-1093zM111 0zM352 244h844q147 0 247.5 27.5t164 90t91 163t27.5 247.5v520h-843q-145 0 -246.5 -28.5t-165 -91t-91.5 -164t-28 -246.5v-518z M801 1704v145h721v-145h-721z" />
<glyph unicode="&#xd6;" d="M111 0v772q0 178 51 319.5t148.5 240t239.5 150.5t324 52h1092v-772q0 -178 -50 -319.5t-147.5 -240t-240 -150.5t-324.5 -52h-1093zM111 0zM352 244h844q147 0 247.5 27.5t164 90t91 163t27.5 247.5v520h-843q-145 0 -246.5 -28.5t-165 -91t-91.5 -164t-28 -246.5v-518z M762 1694v209h242v-209h-242zM1319 1694v209h242v-209h-242z" />
<glyph unicode="&#xd7;" horiz-adv-x="1163" d="M123 463l305 303l-303 303l154 154l303 -303l303 301l151 -154l-301 -301l303 -301l-153 -156l-303 303l-303 -303z" />
<glyph unicode="&#xd8;" d="M111 0v772q0 178 51 319.5t148.5 240t239.5 150.5t324 52h1092v-772q0 -178 -50 -319.5t-147.5 -240t-240 -150.5t-324.5 -52h-1093zM352 246l1057 1046h-526q-145 0 -246.5 -28.5t-165 -91t-91.5 -164t-28 -246.5v-516zM668 244h528q147 0 247.5 27.5t164 90t91 163 t27.5 247.5v520z" />
<glyph unicode="&#xd9;" horiz-adv-x="2070" d="M123 0v1534h244v-1290h630q209 0 347.5 25.5t221.5 85t117.5 159.5t34.5 250v770h240v-772q0 -178 -51.5 -319.5t-148.5 -240t-238.5 -150.5t-323.5 -52h-1073zM123 0zM690 1929h267l217 -307h-238z" />
<glyph unicode="&#xda;" horiz-adv-x="2070" d="M123 0v1534h244v-1290h630q209 0 347.5 25.5t221.5 85t117.5 159.5t34.5 250v770h240v-772q0 -178 -51.5 -319.5t-148.5 -240t-238.5 -150.5t-323.5 -52h-1073zM123 0zM895 1622l217 307h269l-246 -307h-240z" />
<glyph unicode="&#xdb;" horiz-adv-x="2070" d="M123 0v1534h244v-1290h630q209 0 347.5 25.5t221.5 85t117.5 159.5t34.5 250v770h240v-772q0 -178 -51.5 -319.5t-148.5 -240t-238.5 -150.5t-323.5 -52h-1073zM123 0zM647 1622l244 307h284l246 -307h-227l-144 201h-32l-146 -201h-225z" />
<glyph unicode="&#xdc;" horiz-adv-x="2070" d="M123 0v1534h244v-1290h630q209 0 347.5 25.5t221.5 85t117.5 159.5t34.5 250v770h240v-772q0 -178 -51.5 -319.5t-148.5 -240t-238.5 -150.5t-323.5 -52h-1073zM123 0zM635 1694v209h242v-209h-242zM1192 1694v209h242v-209h-242z" />
<glyph unicode="&#xdd;" horiz-adv-x="2070" d="M102 0v244h1086q129 0 222 22.5t156.5 70.5t98.5 124t47 184h-1610v889h242v-645h1374v645h240v-772q0 -178 -51.5 -319.5t-148.5 -240t-238.5 -150.5t-323.5 -52h-1094zM102 0zM895 1622l217 307h269l-246 -307h-240z" />
<glyph unicode="&#xde;" horiz-adv-x="2062" d="M123 0v1534h244v-487q90 94 222 134t296 40h1093v-889h-1613v-332h-242zM377 575h1362v404h-832q-139 0 -233 -16.5t-155.5 -60.5t-94.5 -123t-47 -204z" />
<glyph unicode="&#xdf;" horiz-adv-x="4136" d="M98 0zM98 645q14 248 68.5 418t150 274.5t229.5 150.5t306 46h1110v-242h-1122q-115 0 -197 -28.5t-138 -81t-89 -127t-51 -166.5h1603q-14 -252 -64.5 -422t-142.5 -273.5t-230 -148.5t-331 -45h-1094v244h1086q129 0 217 18.5t146.5 64.5t93 123.5t57.5 194.5h-1608z M2166 645q14 248 68.5 418t150 274.5t229.5 150.5t306 46h1110v-242h-1122q-115 0 -197 -28.5t-138 -81t-89 -127t-51 -166.5h1603q-14 -252 -64.5 -422t-142.5 -273.5t-230 -148.5t-331 -45h-1094v244h1086q129 0 217 18.5t146.5 64.5t93 123.5t57.5 194.5h-1608z" />
<glyph unicode="&#xe0;" horiz-adv-x="2091" d="M111 0v772q0 180 51 321.5t148.5 240t239.5 149.5t324 51h1092v-1534h-240v645h-1372v-645h-243zM111 0zM365 889h1361v403h-841q-145 0 -238.5 -16t-152 -60.5t-87 -123t-42.5 -203.5zM823 1929h267l217 -307h-238z" />
<glyph unicode="&#xe1;" horiz-adv-x="2091" d="M111 0v772q0 180 51 321.5t148.5 240t239.5 149.5t324 51h1092v-1534h-240v645h-1372v-645h-243zM111 0zM365 889h1361v403h-841q-145 0 -238.5 -16t-152 -60.5t-87 -123t-42.5 -203.5zM1028 1622l217 307h269l-246 -307h-240z" />
<glyph unicode="&#xe2;" horiz-adv-x="2091" d="M111 0v772q0 180 51 321.5t148.5 240t239.5 149.5t324 51h1092v-1534h-240v645h-1372v-645h-243zM111 0zM365 889h1361v403h-841q-145 0 -238.5 -16t-152 -60.5t-87 -123t-42.5 -203.5zM780 1622l244 307h284l246 -307h-227l-144 201h-32l-146 -201h-225z" />
<glyph unicode="&#xe3;" horiz-adv-x="2091" d="M111 0v772q0 180 51 321.5t148.5 240t239.5 149.5t324 51h1092v-1534h-240v645h-1372v-645h-243zM111 0zM365 889h1361v403h-841q-145 0 -238.5 -16t-152 -60.5t-87 -123t-42.5 -203.5zM807 1704v145h721v-145h-721z" />
<glyph unicode="&#xe4;" horiz-adv-x="2091" d="M111 0v772q0 180 51 321.5t148.5 240t239.5 149.5t324 51h1092v-1534h-240v645h-1372v-645h-243zM111 0zM365 889h1361v403h-841q-145 0 -238.5 -16t-152 -60.5t-87 -123t-42.5 -203.5zM768 1694v209h242v-209h-242zM1325 1694v209h242v-209h-242z" />
<glyph unicode="&#xe5;" horiz-adv-x="2091" d="M111 0v772q0 180 51 321.5t148.5 240t239.5 149.5t324 51h1092v-1534h-240v645h-1372v-645h-243zM111 0zM365 889h1361v403h-841q-145 0 -238.5 -16t-152 -60.5t-87 -123t-42.5 -203.5zM815 1735v73q0 174 250 174h198q256 0 256 -174v-73q0 -170 -256 -170h-198 q-250 0 -250 170zM962 1755q0 -45 22.5 -61.5t80.5 -16.5h202q59 0 82 18.5t23 59.5v35q0 37 -21.5 56.5t-74.5 19.5h-211q-59 0 -81 -17.5t-22 -58.5v-35z" />
<glyph unicode="&#xe6;" horiz-adv-x="3592" d="M111 0v772q0 180 51 321.5t148.5 240t239.5 149.5t324 51h1051v-164q98 80 227 122t295 42h1051v-242h-1042q-131 0 -224.5 -22.5t-156 -70.5t-96 -125t-48.5 -185h1567v-244h-1573v-401h1573v-244h-1815v645h-1329v-645h-243zM111 0zM365 889h1318v403h-798 q-145 0 -238.5 -16t-152 -60.5t-87 -123t-42.5 -203.5z" />
<glyph unicode="&#xe7;" horiz-adv-x="2043" d="M111 0v772q0 180 51 321.5t148.5 240t239.5 149.5t324 51h1092v-242h-1083q-145 0 -246.5 -28.5t-164 -91t-91.5 -164t-29 -246.5v-518h1614v-244h-1855zM111 0zM1002 -53h246v-144l-125 -278h-121v422z" />
<glyph unicode="&#xe8;" horiz-adv-x="2060" d="M111 0v772q0 178 50 319.5t147.5 240t239.5 150.5t326 52h1092v-242h-1083q-131 0 -224.5 -22.5t-156 -70.5t-96 -125t-48.5 -185h1608v-244h-1614v-401h1614v-244h-1855zM111 0zM809 1929h267l217 -307h-238z" />
<glyph unicode="&#xe9;" horiz-adv-x="2060" d="M111 0v772q0 178 50 319.5t147.5 240t239.5 150.5t326 52h1092v-242h-1083q-131 0 -224.5 -22.5t-156 -70.5t-96 -125t-48.5 -185h1608v-244h-1614v-401h1614v-244h-1855zM111 0zM1011 1622l217 307h269l-246 -307h-240z" />
<glyph unicode="&#xea;" horiz-adv-x="2060" d="M111 0v772q0 178 50 319.5t147.5 240t239.5 150.5t326 52h1092v-242h-1083q-131 0 -224.5 -22.5t-156 -70.5t-96 -125t-48.5 -185h1608v-244h-1614v-401h1614v-244h-1855zM111 0zM766 1622l244 307h284l246 -307h-227l-144 201h-32l-146 -201h-225z" />
<glyph unicode="&#xeb;" horiz-adv-x="2060" d="M111 0v772q0 178 50 319.5t147.5 240t239.5 150.5t326 52h1092v-242h-1083q-131 0 -224.5 -22.5t-156 -70.5t-96 -125t-48.5 -185h1608v-244h-1614v-401h1614v-244h-1855zM111 0zM754 1694v209h242v-209h-242zM1311 1694v209h242v-209h-242z" />
<glyph unicode="&#xec;" horiz-adv-x="489" d="M-97 1929h267l217 -307h-238zM0 0zM123 0v1534h242v-1534h-242z" />
<glyph unicode="&#xed;" horiz-adv-x="489" d="M104 0zM104 1622l217 307h269l-246 -307h-240zM123 0v1534h242v-1534h-242z" />
<glyph unicode="&#xee;" horiz-adv-x="489" d="M-139 1622l244 307h284l246 -307h-227l-144 201h-32l-146 -201h-225zM0 0zM123 0v1534h242v-1534h-242z" />
<glyph unicode="&#xef;" horiz-adv-x="489" d="M-151 1694v209h242v-209h-242zM0 0zM123 0v1534h242v-1534h-242zM406 1694v209h242v-209h-242z" />
<glyph unicode="&#xf0;" horiz-adv-x="2140" d="M0 0zM0 645v244h174v645h1856v-772q0 -178 -51.5 -319.5t-148.5 -240t-238.5 -150.5t-323.5 -52h-1094v645h-174zM418 244h839q147 0 249 27.5t164.5 90t90 163t27.5 247.5v520h-1370v-403h1061v-244h-1061v-401z" />
<glyph unicode="&#xf1;" horiz-adv-x="2105" d="M123 0v1665l1618 -1292v1161h239v-1665l-1613 1292v-1161h-244zM123 0zM692 1704v145h721v-145h-721z" />
<glyph unicode="&#xf2;" d="M111 0v772q0 178 51 319.5t148.5 240t239.5 150.5t324 52h1092v-772q0 -178 -50 -319.5t-147.5 -240t-240 -150.5t-324.5 -52h-1093zM111 0zM352 244h844q147 0 247.5 27.5t164 90t91 163t27.5 247.5v520h-843q-145 0 -246.5 -28.5t-165 -91t-91.5 -164t-28 -246.5v-518z M817 1929h267l217 -307h-238z" />
<glyph unicode="&#xf3;" d="M111 0v772q0 178 51 319.5t148.5 240t239.5 150.5t324 52h1092v-772q0 -178 -50 -319.5t-147.5 -240t-240 -150.5t-324.5 -52h-1093zM111 0zM352 244h844q147 0 247.5 27.5t164 90t91 163t27.5 247.5v520h-843q-145 0 -246.5 -28.5t-165 -91t-91.5 -164t-28 -246.5v-518z M1022 1622l217 307h269l-246 -307h-240z" />
<glyph unicode="&#xf4;" d="M111 0v772q0 178 51 319.5t148.5 240t239.5 150.5t324 52h1092v-772q0 -178 -50 -319.5t-147.5 -240t-240 -150.5t-324.5 -52h-1093zM111 0zM352 244h844q147 0 247.5 27.5t164 90t91 163t27.5 247.5v520h-843q-145 0 -246.5 -28.5t-165 -91t-91.5 -164t-28 -246.5v-518z M774 1622l244 307h284l246 -307h-227l-144 201h-32l-146 -201h-225z" />
<glyph unicode="&#xf5;" d="M111 0v772q0 178 51 319.5t148.5 240t239.5 150.5t324 52h1092v-772q0 -178 -50 -319.5t-147.5 -240t-240 -150.5t-324.5 -52h-1093zM111 0zM352 244h844q147 0 247.5 27.5t164 90t91 163t27.5 247.5v520h-843q-145 0 -246.5 -28.5t-165 -91t-91.5 -164t-28 -246.5v-518z M801 1704v145h721v-145h-721z" />
<glyph unicode="&#xf6;" d="M111 0v772q0 178 51 319.5t148.5 240t239.5 150.5t324 52h1092v-772q0 -178 -50 -319.5t-147.5 -240t-240 -150.5t-324.5 -52h-1093zM111 0zM352 244h844q147 0 247.5 27.5t164 90t91 163t27.5 247.5v520h-843q-145 0 -246.5 -28.5t-165 -91t-91.5 -164t-28 -246.5v-518z M762 1694v209h242v-209h-242zM1319 1694v209h242v-209h-242z" />
<glyph unicode="&#xf7;" horiz-adv-x="1320" d="M123 2zM123 659v218h1075v-218h-1075zM539 2v211h242v-211h-242zM539 1323v211h242v-211h-242z" />
<glyph unicode="&#xf8;" d="M111 0v772q0 178 51 319.5t148.5 240t239.5 150.5t324 52h1092v-772q0 -178 -50 -319.5t-147.5 -240t-240 -150.5t-324.5 -52h-1093zM111 0zM352 246l1057 1046h-526q-145 0 -246.5 -28.5t-165 -91t-91.5 -164t-28 -246.5v-516zM668 244h528q147 0 247.5 27.5t164 90 t91 163t27.5 247.5v520z" />
<glyph unicode="&#xf9;" horiz-adv-x="2070" d="M123 0v1534h244v-1290h630q209 0 347.5 25.5t221.5 85t117.5 159.5t34.5 250v770h240v-772q0 -178 -51.5 -319.5t-148.5 -240t-238.5 -150.5t-323.5 -52h-1073zM123 0zM690 1929h267l217 -307h-238z" />
<glyph unicode="&#xfa;" horiz-adv-x="2070" d="M123 0v1534h244v-1290h630q209 0 347.5 25.5t221.5 85t117.5 159.5t34.5 250v770h240v-772q0 -178 -51.5 -319.5t-148.5 -240t-238.5 -150.5t-323.5 -52h-1073zM123 0zM895 1622l217 307h269l-246 -307h-240z" />
<glyph unicode="&#xfb;" horiz-adv-x="2070" d="M123 0v1534h244v-1290h630q209 0 347.5 25.5t221.5 85t117.5 159.5t34.5 250v770h240v-772q0 -178 -51.5 -319.5t-148.5 -240t-238.5 -150.5t-323.5 -52h-1073zM123 0zM647 1622l244 307h284l246 -307h-227l-144 201h-32l-146 -201h-225z" />
<glyph unicode="&#xfc;" horiz-adv-x="2070" d="M123 0v1534h244v-1290h630q209 0 347.5 25.5t221.5 85t117.5 159.5t34.5 250v770h240v-772q0 -178 -51.5 -319.5t-148.5 -240t-238.5 -150.5t-323.5 -52h-1073zM123 0zM635 1694v209h242v-209h-242zM1192 1694v209h242v-209h-242z" />
<glyph unicode="&#xfd;" horiz-adv-x="2070" d="M102 0v244h1086q129 0 222 22.5t156.5 70.5t98.5 124t47 184h-1610v889h242v-645h1374v645h240v-772q0 -178 -51.5 -319.5t-148.5 -240t-238.5 -150.5t-323.5 -52h-1094zM102 0zM895 1622l217 307h269l-246 -307h-240z" />
<glyph unicode="&#xfe;" horiz-adv-x="2062" d="M123 0v1534h244v-487q90 94 222 134t296 40h1093v-889h-1613v-332h-242zM123 0zM377 575h1362v404h-832q-139 0 -233 -16.5t-155.5 -60.5t-94.5 -123t-47 -204z" />
<glyph unicode="&#xff;" horiz-adv-x="2070" d="M102 0v244h1086q129 0 222 22.5t156.5 70.5t98.5 124t47 184h-1610v889h242v-645h1374v645h240v-772q0 -178 -51.5 -319.5t-148.5 -240t-238.5 -150.5t-323.5 -52h-1094zM102 0zM635 1694v209h242v-209h-242zM1192 1694v209h242v-209h-242z" />
<glyph unicode="&#x152;" horiz-adv-x="3592" d="M111 0v772q0 178 51 319.5t148.5 240t239.5 150.5t324 52h1051v-164q98 80 227 122t295 42h1051v-242h-1042q-131 0 -224.5 -22.5t-156 -70.5t-96 -125t-48.5 -185h1567v-244h-1573v-401h1573v-244h-1815v164q-96 -80 -226 -122t-294 -42h-1052zM352 244h803 q147 0 247.5 27.5t163 90t90 163t27.5 247.5v520h-800q-145 0 -246.5 -28.5t-165 -91t-91.5 -164t-28 -246.5v-518z" />
<glyph unicode="&#x153;" horiz-adv-x="3592" d="M111 0v772q0 178 51 319.5t148.5 240t239.5 150.5t324 52h1051v-164q98 80 227 122t295 42h1051v-242h-1042q-131 0 -224.5 -22.5t-156 -70.5t-96 -125t-48.5 -185h1567v-244h-1573v-401h1573v-244h-1815v164q-96 -80 -226 -122t-294 -42h-1052zM111 0zM352 244h803 q147 0 247.5 27.5t163 90t90 163t27.5 247.5v520h-800q-145 0 -246.5 -28.5t-165 -91t-91.5 -164t-28 -246.5v-518z" />
<glyph unicode="&#x178;" horiz-adv-x="2070" d="M102 0v244h1086q129 0 222 22.5t156.5 70.5t98.5 124t47 184h-1610v889h242v-645h1374v645h240v-772q0 -178 -51.5 -319.5t-148.5 -240t-238.5 -150.5t-323.5 -52h-1094zM102 0zM635 1694v209h242v-209h-242zM1192 1694v209h242v-209h-242z" />
<glyph unicode="&#x2c6;" horiz-adv-x="1019" d="M123 1622l244 307h284l246 -307h-227l-144 201h-32l-146 -201h-225z" />
<glyph unicode="&#x2dc;" horiz-adv-x="966" d="M123 1704v145h721v-145h-721z" />
<glyph unicode="&#x2000;" horiz-adv-x="991" />
<glyph unicode="&#x2001;" horiz-adv-x="1982" />
<glyph unicode="&#x2002;" horiz-adv-x="991" />
<glyph unicode="&#x2003;" horiz-adv-x="1982" />
<glyph unicode="&#x2004;" horiz-adv-x="660" />
<glyph unicode="&#x2005;" horiz-adv-x="495" />
<glyph unicode="&#x2006;" horiz-adv-x="330" />
<glyph unicode="&#x2007;" horiz-adv-x="330" />
<glyph unicode="&#x2008;" horiz-adv-x="247" />
<glyph unicode="&#x2009;" horiz-adv-x="396" />
<glyph unicode="&#x200a;" horiz-adv-x="110" />
<glyph unicode="&#x2010;" horiz-adv-x="794" d="M35 659v218h723v-218h-723z" />
<glyph unicode="&#x2011;" horiz-adv-x="794" d="M35 659v218h723v-218h-723z" />
<glyph unicode="&#x2012;" horiz-adv-x="794" d="M35 659v218h723v-218h-723z" />
<glyph unicode="&#x2013;" horiz-adv-x="1263" d="M35 659v218h1194v-218h-1194z" />
<glyph unicode="&#x2014;" horiz-adv-x="1955" d="M35 659v218h1886v-218h-1886z" />
<glyph unicode="&#x2018;" horiz-adv-x="493" d="M123 1393v141h246v-420h-119z" />
<glyph unicode="&#x2019;" horiz-adv-x="493" d="M123 1114v420h246v-141l-125 -279h-121z" />
<glyph unicode="&#x201a;" horiz-adv-x="493" d="M123 -209v422h246v-143l-125 -279h-121z" />
<glyph unicode="&#x201c;" horiz-adv-x="987" d="M123 1114zM123 1393v141h246v-420h-119zM617 1393v141h246v-420h-119z" />
<glyph unicode="&#x201d;" horiz-adv-x="987" d="M123 1114v420h246v-141l-125 -279h-121zM123 1114zM617 1114v420h246v-141l-125 -279h-121z" />
<glyph unicode="&#x201e;" horiz-adv-x="987" d="M123 0zM123 -209v422h246v-143l-125 -279h-121zM617 -209v422h246v-143l-125 -279h-121z" />
<glyph unicode="&#x2022;" horiz-adv-x="614" d="M123 496v393h369v-393h-369z" />
<glyph unicode="&#x2026;" horiz-adv-x="1685" d="M152 2v211h242v-211h-242zM152 2zM721 2v211h242v-211h-242zM1290 2v211h242v-211h-242z" />
<glyph unicode="&#x202f;" horiz-adv-x="396" />
<glyph unicode="&#x2039;" horiz-adv-x="466" d="M35 606v322l395 276v-256l-256 -162v-38l256 -162v-254z" />
<glyph unicode="&#x203a;" horiz-adv-x="466" d="M35 332v254l258 162v38l-258 162v256l395 -276v-322z" />
<glyph unicode="&#x205f;" horiz-adv-x="495" />
<glyph unicode="&#x20ac;" horiz-adv-x="2029" d="M111 0v772q0 180 51 321.5t148.5 240t239.5 149.5t324 51h1104l-161 -242h-934q-193 0 -306.5 -48t-168.5 -161h1267l-145 -217h-1174q-4 -25 -4 -50v-54v-92h1049l-148 -217h-901v-209h1614v-244h-1855z" />
<glyph unicode="&#x2122;" horiz-adv-x="1642" d="M98 1403v131h598v-131h-227v-668h-137v668h-234zM786 735v799h127l238 -573h8l230 573h131v-799h-136v434l-178 -434h-110l-176 434v-434h-134z" />
<glyph unicode="&#x25fc;" horiz-adv-x="1587" d="M0 0v1587h1587v-1587h-1587z" />
</font>
</defs>
</svg>
